{
 "cells": [
  {
   "cell_type": "markdown",
   "id": 3.0293430767166755e+38,
   "metadata": {
    "id": 3.0293430767166755e+38
   },
   "source": [
    "# Gradio Demo: waveform"
   ]
  },
  {
   "cell_type": "code",
   "execution_count": 1,
   "id": 2.7299665331067346e+38,
   "metadata": {
    "colab": {
     "base_uri": "https://localhost:8080/"
    },
    "id": 2.7299665331067346e+38,
    "outputId": "8baa9cc8-3833-422d-cb25-4b7a4f829556"
   },
   "outputs": [
    {
     "name": "stdout",
     "output_type": "stream",
     "text": [
      "\u001b[31mERROR: pip's dependency resolver does not currently take into account all the packages that are installed. This behaviour is the source of the following dependency conflicts.\r\n",
      "spyder 5.4.1 requires pyqt5<5.16, which is not installed.\r\n",
      "spyder 5.4.1 requires pyqtwebengine<5.16, which is not installed.\r\n",
      "argilla 1.6.0 requires pandas<2.0.0,>=1.0.0, but you have pandas 2.0.1 which is incompatible.\u001b[0m\u001b[31m\r\n",
      "\u001b[0m"
     ]
    }
   ],
   "source": [
    "!pip install -q gradio "
   ]
  },
  {
   "cell_type": "code",
   "execution_count": 2,
   "id": 2.8891853944186117e+38,
   "metadata": {
    "colab": {
     "base_uri": "https://localhost:8080/",
     "height": 618
    },
    "id": 2.8891853944186117e+38,
    "outputId": "b66cc8a9-f2da-4a57-a49f-ac86e67df94e"
   },
   "outputs": [
    {
     "name": "stdout",
     "output_type": "stream",
     "text": [
      "Running on local URL:  http://127.0.0.1:7860\n",
      "\n",
      "To create a public link, set `share=True` in `launch()`.\n"
     ]
    },
    {
     "data": {
      "text/html": [
       "<div><iframe src=\"http://127.0.0.1:7860/\" width=\"100%\" height=\"500\" allow=\"autoplay; camera; microphone; clipboard-read; clipboard-write;\" frameborder=\"0\" allowfullscreen></iframe></div>"
      ],
      "text/plain": [
       "<IPython.core.display.HTML object>"
      ]
     },
     "metadata": {},
     "output_type": "display_data"
    },
    {
     "data": {
      "text/plain": []
     },
     "execution_count": 2,
     "metadata": {},
     "output_type": "execute_result"
    },
    {
     "name": "stderr",
     "output_type": "stream",
     "text": [
      "ffmpeg version 6.0 Copyright (c) 2000-2023 the FFmpeg developers\n",
      "  built with Apple clang version 14.0.0 (clang-1400.0.29.202)\n",
      "  configuration: --prefix=/usr/local/Cellar/ffmpeg/6.0 --enable-shared --enable-pthreads --enable-version3 --cc=clang --host-cflags= --host-ldflags= --enable-ffplay --enable-gnutls --enable-gpl --enable-libaom --enable-libaribb24 --enable-libbluray --enable-libdav1d --enable-libmp3lame --enable-libopus --enable-librav1e --enable-librist --enable-librubberband --enable-libsnappy --enable-libsrt --enable-libsvtav1 --enable-libtesseract --enable-libtheora --enable-libvidstab --enable-libvmaf --enable-libvorbis --enable-libvpx --enable-libwebp --enable-libx264 --enable-libx265 --enable-libxml2 --enable-libxvid --enable-lzma --enable-libfontconfig --enable-libfreetype --enable-frei0r --enable-libass --enable-libopencore-amrnb --enable-libopencore-amrwb --enable-libopenjpeg --enable-libspeex --enable-libsoxr --enable-libzmq --enable-libzimg --disable-libjack --disable-indev=jack --enable-videotoolbox\n",
      "  libavutil      58.  2.100 / 58.  2.100\n",
      "  libavcodec     60.  3.100 / 60.  3.100\n",
      "  libavformat    60.  3.100 / 60.  3.100\n",
      "  libavdevice    60.  1.100 / 60.  1.100\n",
      "  libavfilter     9.  3.100 /  9.  3.100\n",
      "  libswscale      7.  1.100 /  7.  1.100\n",
      "  libswresample   4. 10.100 /  4. 10.100\n",
      "  libpostproc    57.  1.100 / 57.  1.100\n",
      "Input #0, png_pipe, from '/var/folders/cj/qtbz9fvd3svc0x28yv2756mh0000gn/T/tmp3enreujx.png':\n",
      "  Duration: N/A, bitrate: N/A\n",
      "  Stream #0:0: Video: png, rgba(pc), 1000x200, 25 fps, 25 tbr, 25 tbn\n",
      "Guessed Channel Layout for Input Stream #1.0 : stereo\n",
      "Input #1, wav, from '/var/folders/cj/qtbz9fvd3svc0x28yv2756mh0000gn/T/tmpy9nocoo4.wav':\n",
      "  Duration: 00:00:10.00, bitrate: 1536 kb/s\n",
      "  Stream #1:0: Audio: pcm_s16le ([1][0][0][0] / 0x0001), 48000 Hz, 2 channels, s16, 1536 kb/s\n",
      "Stream mapping:\n",
      "  Stream #0:0 -> #0:0 (png (native) -> h264 (libx264))\n",
      "  Stream #1:0 -> #0:1 (pcm_s16le (native) -> aac (native))\n",
      "Press [q] to stop, [?] for help\n",
      "[libx264 @ 0x7fc292f09980] using cpu capabilities: MMX2 SSE2Fast SSSE3 SSE4.2 AVX FMA3 BMI2 AVX2\n",
      "[libx264 @ 0x7fc292f09980] profile High, level 3.0, 4:2:0, 8-bit\n",
      "[libx264 @ 0x7fc292f09980] 264 - core 164 r3095 baee400 - H.264/MPEG-4 AVC codec - Copyleft 2003-2022 - http://www.videolan.org/x264.html - options: cabac=1 ref=3 deblock=1:0:0 analyse=0x3:0x113 me=hex subme=7 psy=1 psy_rd=1.00:0.00 mixed_ref=1 me_range=16 chroma_me=1 trellis=1 8x8dct=1 cqm=0 deadzone=21,11 fast_pskip=1 chroma_qp_offset=-2 threads=6 lookahead_threads=1 sliced_threads=0 nr=0 decimate=1 interlaced=0 bluray_compat=0 constrained_intra=0 bframes=3 b_pyramid=2 b_adapt=1 b_bias=0 direct=1 weightb=1 open_gop=0 weightp=2 keyint=250 keyint_min=25 scenecut=40 intra_refresh=0 rc_lookahead=40 rc=crf mbtree=1 crf=23.0 qcomp=0.60 qpmin=0 qpmax=69 qpstep=4 ip_ratio=1.40 aq=1:1.00\n",
      "Output #0, mp4, to '/var/folders/cj/qtbz9fvd3svc0x28yv2756mh0000gn/T/tmptjmk5x7x.mp4':\n",
      "  Metadata:\n",
      "    encoder         : Lavf60.3.100\n",
      "  Stream #0:0: Video: h264 (avc1 / 0x31637661), yuv420p(tv, progressive), 1000x200, q=2-31, 25 fps, 12800 tbn\n",
      "    Metadata:\n",
      "      encoder         : Lavc60.3.100 libx264\n",
      "    Side data:\n",
      "      cpb: bitrate max/min/avg: 0/0/0 buffer size: 0 vbv_delay: N/A\n",
      "  Stream #0:1: Audio: aac (LC) (mp4a / 0x6134706D), 48000 Hz, stereo, fltp, 128 kb/s\n",
      "    Metadata:\n",
      "      encoder         : Lavc60.3.100 aac\n",
      "frame=  250 fps=0.0 q=-1.0 Lsize=     197kB time=00:00:09.98 bitrate= 161.8kbits/s speed=13.2x     \n",
      "video:33kB audio:156kB subtitle:0kB other streams:0kB global headers:0kB muxing overhead: 4.495615%\n",
      "[libx264 @ 0x7fc292f09980] frame I:1     Avg QP:21.16  size:  6538\n",
      "[libx264 @ 0x7fc292f09980] frame P:123   Avg QP:21.61  size:   160\n",
      "[libx264 @ 0x7fc292f09980] frame B:126   Avg QP:18.96  size:    51\n",
      "[libx264 @ 0x7fc292f09980] consecutive B-frames: 23.2% 16.0% 38.4% 22.4%\n",
      "[libx264 @ 0x7fc292f09980] mb I  I16..4: 60.3% 19.0% 20.6%\n",
      "[libx264 @ 0x7fc292f09980] mb P  I16..4:  1.3%  0.7%  0.1%  P16..4:  4.2%  0.4%  0.1%  0.0%  0.0%    skip:93.3%\n",
      "[libx264 @ 0x7fc292f09980] mb B  I16..4:  0.2%  0.1%  0.0%  B16..8:  2.9%  0.2%  0.0%  direct: 0.0%  skip:96.6%  L0:52.2% L1:47.2% BI: 0.6%\n",
      "[libx264 @ 0x7fc292f09980] 8x8 transform intra:28.8% inter:51.5%\n",
      "[libx264 @ 0x7fc292f09980] coded y,uvDC,uvAC intra: 4.1% 10.1% 8.2% inter: 0.1% 0.2% 0.1%\n",
      "[libx264 @ 0x7fc292f09980] i16 v,h,dc,p: 96%  1%  3%  0%\n",
      "[libx264 @ 0x7fc292f09980] i8 v,h,dc,ddl,ddr,vr,hd,vl,hu: 11%  2% 86%  1%  0%  0%  0%  0%  0%\n",
      "[libx264 @ 0x7fc292f09980] i4 v,h,dc,ddl,ddr,vr,hd,vl,hu: 66% 18% 12%  0%  1%  1%  1%  1%  0%\n",
      "[libx264 @ 0x7fc292f09980] i8c dc,h,v,p: 42%  4% 54%  0%\n",
      "[libx264 @ 0x7fc292f09980] Weighted P-Frames: Y:0.0% UV:0.0%\n",
      "[libx264 @ 0x7fc292f09980] ref P L0: 90.8%  0.4%  6.1%  2.7%\n",
      "[libx264 @ 0x7fc292f09980] ref B L0: 75.2% 16.4%  8.3%\n",
      "[libx264 @ 0x7fc292f09980] ref B L1: 98.6%  1.4%\n",
      "[libx264 @ 0x7fc292f09980] kb/s:26.08\n",
      "[aac @ 0x7fc292f0adc0] Qavg: 210.217\n",
      "ffmpeg version 6.0 Copyright (c) 2000-2023 the FFmpeg developers\n",
      "  built with Apple clang version 14.0.0 (clang-1400.0.29.202)\n",
      "  configuration: --prefix=/usr/local/Cellar/ffmpeg/6.0 --enable-shared --enable-pthreads --enable-version3 --cc=clang --host-cflags= --host-ldflags= --enable-ffplay --enable-gnutls --enable-gpl --enable-libaom --enable-libaribb24 --enable-libbluray --enable-libdav1d --enable-libmp3lame --enable-libopus --enable-librav1e --enable-librist --enable-librubberband --enable-libsnappy --enable-libsrt --enable-libsvtav1 --enable-libtesseract --enable-libtheora --enable-libvidstab --enable-libvmaf --enable-libvorbis --enable-libvpx --enable-libwebp --enable-libx264 --enable-libx265 --enable-libxml2 --enable-libxvid --enable-lzma --enable-libfontconfig --enable-libfreetype --enable-frei0r --enable-libass --enable-libopencore-amrnb --enable-libopencore-amrwb --enable-libopenjpeg --enable-libspeex --enable-libsoxr --enable-libzmq --enable-libzimg --disable-libjack --disable-indev=jack --enable-videotoolbox\n",
      "  libavutil      58.  2.100 / 58.  2.100\n",
      "  libavcodec     60.  3.100 / 60.  3.100\n",
      "  libavformat    60.  3.100 / 60.  3.100\n",
      "  libavdevice    60.  1.100 / 60.  1.100\n",
      "  libavfilter     9.  3.100 /  9.  3.100\n",
      "  libswscale      7.  1.100 /  7.  1.100\n",
      "  libswresample   4. 10.100 /  4. 10.100\n",
      "  libpostproc    57.  1.100 / 57.  1.100\n",
      "Input #0, png_pipe, from '/var/folders/cj/qtbz9fvd3svc0x28yv2756mh0000gn/T/tmpxz65tzov.png':\n",
      "  Duration: N/A, bitrate: N/A\n",
      "  Stream #0:0: Video: png, rgba(pc), 1000x200, 25 fps, 25 tbr, 25 tbn\n",
      "Guessed Channel Layout for Input Stream #1.0 : stereo\n",
      "Input #1, wav, from '/var/folders/cj/qtbz9fvd3svc0x28yv2756mh0000gn/T/tmpsyq_wpnt.wav':\n",
      "  Duration: 00:00:10.00, bitrate: 1536 kb/s\n",
      "  Stream #1:0: Audio: pcm_s16le ([1][0][0][0] / 0x0001), 48000 Hz, 2 channels, s16, 1536 kb/s\n",
      "Stream mapping:\n",
      "  Stream #0:0 -> #0:0 (png (native) -> h264 (libx264))\n",
      "  Stream #1:0 -> #0:1 (pcm_s16le (native) -> aac (native))\n",
      "Press [q] to stop, [?] for help\n",
      "[libx264 @ 0x7f7af6a087c0] using cpu capabilities: MMX2 SSE2Fast SSSE3 SSE4.2 AVX FMA3 BMI2 AVX2\n",
      "[libx264 @ 0x7f7af6a087c0] profile High, level 3.0, 4:2:0, 8-bit\n",
      "[libx264 @ 0x7f7af6a087c0] 264 - core 164 r3095 baee400 - H.264/MPEG-4 AVC codec - Copyleft 2003-2022 - http://www.videolan.org/x264.html - options: cabac=1 ref=3 deblock=1:0:0 analyse=0x3:0x113 me=hex subme=7 psy=1 psy_rd=1.00:0.00 mixed_ref=1 me_range=16 chroma_me=1 trellis=1 8x8dct=1 cqm=0 deadzone=21,11 fast_pskip=1 chroma_qp_offset=-2 threads=6 lookahead_threads=1 sliced_threads=0 nr=0 decimate=1 interlaced=0 bluray_compat=0 constrained_intra=0 bframes=3 b_pyramid=2 b_adapt=1 b_bias=0 direct=1 weightb=1 open_gop=0 weightp=2 keyint=250 keyint_min=25 scenecut=40 intra_refresh=0 rc_lookahead=40 rc=crf mbtree=1 crf=23.0 qcomp=0.60 qpmin=0 qpmax=69 qpstep=4 ip_ratio=1.40 aq=1:1.00\n",
      "Output #0, mp4, to '/var/folders/cj/qtbz9fvd3svc0x28yv2756mh0000gn/T/tmp8f9vg961.mp4':\n",
      "  Metadata:\n",
      "    encoder         : Lavf60.3.100\n",
      "  Stream #0:0: Video: h264 (avc1 / 0x31637661), yuv420p(tv, progressive), 1000x200, q=2-31, 25 fps, 12800 tbn\n",
      "    Metadata:\n",
      "      encoder         : Lavc60.3.100 libx264\n",
      "    Side data:\n",
      "      cpb: bitrate max/min/avg: 0/0/0 buffer size: 0 vbv_delay: N/A\n",
      "  Stream #0:1: Audio: aac (LC) (mp4a / 0x6134706D), 48000 Hz, stereo, fltp, 128 kb/s\n",
      "    Metadata:\n",
      "      encoder         : Lavc60.3.100 aac\n"
     ]
    },
    {
     "name": "stderr",
     "output_type": "stream",
     "text": [
      "frame=  250 fps=0.0 q=-1.0 Lsize=     198kB time=00:00:09.98 bitrate= 162.3kbits/s speed=12.7x     \n",
      "video:33kB audio:156kB subtitle:0kB other streams:0kB global headers:0kB muxing overhead: 4.464134%\n",
      "[libx264 @ 0x7f7af6a087c0] frame I:1     Avg QP:23.19  size:  5855\n",
      "[libx264 @ 0x7f7af6a087c0] frame P:136   Avg QP:23.85  size:   160\n",
      "[libx264 @ 0x7f7af6a087c0] frame B:113   Avg QP:17.61  size:    50\n",
      "[libx264 @ 0x7f7af6a087c0] consecutive B-frames: 26.4% 28.0% 36.0%  9.6%\n",
      "[libx264 @ 0x7f7af6a087c0] mb I  I16..4: 60.7% 18.3% 21.0%\n",
      "[libx264 @ 0x7f7af6a087c0] mb P  I16..4:  1.5%  0.7%  0.1%  P16..4:  4.0%  0.2%  0.1%  0.0%  0.0%    skip:93.5%\n",
      "[libx264 @ 0x7f7af6a087c0] mb B  I16..4:  0.2%  0.1%  0.0%  B16..8:  2.8%  0.2%  0.0%  direct: 0.0%  skip:96.6%  L0:50.0% L1:49.7% BI: 0.3%\n",
      "[libx264 @ 0x7f7af6a087c0] 8x8 transform intra:29.2% inter:32.1%\n",
      "[libx264 @ 0x7f7af6a087c0] coded y,uvDC,uvAC intra: 3.4% 9.7% 7.9% inter: 0.1% 0.2% 0.1%\n",
      "[libx264 @ 0x7f7af6a087c0] i16 v,h,dc,p: 95%  2%  3%  0%\n",
      "[libx264 @ 0x7f7af6a087c0] i8 v,h,dc,ddl,ddr,vr,hd,vl,hu:  9%  2% 89%  1%  0%  0%  0%  0%  0%\n",
      "[libx264 @ 0x7f7af6a087c0] i4 v,h,dc,ddl,ddr,vr,hd,vl,hu: 68% 17% 10%  0%  1%  1%  1%  1%  1%\n",
      "[libx264 @ 0x7f7af6a087c0] i8c dc,h,v,p: 39%  8% 54%  0%\n",
      "[libx264 @ 0x7f7af6a087c0] Weighted P-Frames: Y:0.0% UV:0.0%\n",
      "[libx264 @ 0x7f7af6a087c0] ref P L0: 90.7%  0.4%  5.7%  3.2%\n",
      "[libx264 @ 0x7f7af6a087c0] ref B L0: 83.3% 10.5%  6.2%\n",
      "[libx264 @ 0x7f7af6a087c0] ref B L1: 99.1%  0.9%\n",
      "[libx264 @ 0x7f7af6a087c0] kb/s:26.60\n",
      "[aac @ 0x7f7af6a09c00] Qavg: 210.217\n",
      "ffmpeg version 6.0 Copyright (c) 2000-2023 the FFmpeg developers\n",
      "  built with Apple clang version 14.0.0 (clang-1400.0.29.202)\n",
      "  configuration: --prefix=/usr/local/Cellar/ffmpeg/6.0 --enable-shared --enable-pthreads --enable-version3 --cc=clang --host-cflags= --host-ldflags= --enable-ffplay --enable-gnutls --enable-gpl --enable-libaom --enable-libaribb24 --enable-libbluray --enable-libdav1d --enable-libmp3lame --enable-libopus --enable-librav1e --enable-librist --enable-librubberband --enable-libsnappy --enable-libsrt --enable-libsvtav1 --enable-libtesseract --enable-libtheora --enable-libvidstab --enable-libvmaf --enable-libvorbis --enable-libvpx --enable-libwebp --enable-libx264 --enable-libx265 --enable-libxml2 --enable-libxvid --enable-lzma --enable-libfontconfig --enable-libfreetype --enable-frei0r --enable-libass --enable-libopencore-amrnb --enable-libopencore-amrwb --enable-libopenjpeg --enable-libspeex --enable-libsoxr --enable-libzmq --enable-libzimg --disable-libjack --disable-indev=jack --enable-videotoolbox\n",
      "  libavutil      58.  2.100 / 58.  2.100\n",
      "  libavcodec     60.  3.100 / 60.  3.100\n",
      "  libavformat    60.  3.100 / 60.  3.100\n",
      "  libavdevice    60.  1.100 / 60.  1.100\n",
      "  libavfilter     9.  3.100 /  9.  3.100\n",
      "  libswscale      7.  1.100 /  7.  1.100\n",
      "  libswresample   4. 10.100 /  4. 10.100\n",
      "  libpostproc    57.  1.100 / 57.  1.100\n",
      "Input #0, png_pipe, from '/var/folders/cj/qtbz9fvd3svc0x28yv2756mh0000gn/T/tmp3yp0v52a.png':\n",
      "  Duration: N/A, bitrate: N/A\n",
      "  Stream #0:0: Video: png, rgba(pc), 1000x200, 25 fps, 25 tbr, 25 tbn\n",
      "Guessed Channel Layout for Input Stream #1.0 : stereo\n",
      "Input #1, wav, from '/var/folders/cj/qtbz9fvd3svc0x28yv2756mh0000gn/T/tmpvqm9wjc3.wav':\n",
      "  Duration: 00:00:10.00, bitrate: 1536 kb/s\n",
      "  Stream #1:0: Audio: pcm_s16le ([1][0][0][0] / 0x0001), 48000 Hz, 2 channels, s16, 1536 kb/s\n",
      "Stream mapping:\n",
      "  Stream #0:0 -> #0:0 (png (native) -> h264 (libx264))\n",
      "  Stream #1:0 -> #0:1 (pcm_s16le (native) -> aac (native))\n",
      "Press [q] to stop, [?] for help\n",
      "[libx264 @ 0x7f9eae10ab40] using cpu capabilities: MMX2 SSE2Fast SSSE3 SSE4.2 AVX FMA3 BMI2 AVX2\n",
      "[libx264 @ 0x7f9eae10ab40] profile High, level 3.0, 4:2:0, 8-bit\n",
      "[libx264 @ 0x7f9eae10ab40] 264 - core 164 r3095 baee400 - H.264/MPEG-4 AVC codec - Copyleft 2003-2022 - http://www.videolan.org/x264.html - options: cabac=1 ref=3 deblock=1:0:0 analyse=0x3:0x113 me=hex subme=7 psy=1 psy_rd=1.00:0.00 mixed_ref=1 me_range=16 chroma_me=1 trellis=1 8x8dct=1 cqm=0 deadzone=21,11 fast_pskip=1 chroma_qp_offset=-2 threads=6 lookahead_threads=1 sliced_threads=0 nr=0 decimate=1 interlaced=0 bluray_compat=0 constrained_intra=0 bframes=3 b_pyramid=2 b_adapt=1 b_bias=0 direct=1 weightb=1 open_gop=0 weightp=2 keyint=250 keyint_min=25 scenecut=40 intra_refresh=0 rc_lookahead=40 rc=crf mbtree=1 crf=23.0 qcomp=0.60 qpmin=0 qpmax=69 qpstep=4 ip_ratio=1.40 aq=1:1.00\n",
      "Output #0, mp4, to '/var/folders/cj/qtbz9fvd3svc0x28yv2756mh0000gn/T/tmpzwv_6b9t.mp4':\n",
      "  Metadata:\n",
      "    encoder         : Lavf60.3.100\n",
      "  Stream #0:0: Video: h264 (avc1 / 0x31637661), yuv420p(tv, progressive), 1000x200, q=2-31, 25 fps, 12800 tbn\n",
      "    Metadata:\n",
      "      encoder         : Lavc60.3.100 libx264\n",
      "    Side data:\n",
      "      cpb: bitrate max/min/avg: 0/0/0 buffer size: 0 vbv_delay: N/A\n",
      "  Stream #0:1: Audio: aac (LC) (mp4a / 0x6134706D), 48000 Hz, stereo, fltp, 128 kb/s\n",
      "    Metadata:\n",
      "      encoder         : Lavc60.3.100 aac\n",
      "frame=  250 fps=0.0 q=-1.0 Lsize=     197kB time=00:00:09.98 bitrate= 161.8kbits/s speed=11.9x     \n",
      "video:33kB audio:156kB subtitle:0kB other streams:0kB global headers:0kB muxing overhead: 4.495615%\n",
      "[libx264 @ 0x7f9eae10ab40] frame I:1     Avg QP:21.16  size:  6538\n",
      "[libx264 @ 0x7f9eae10ab40] frame P:123   Avg QP:21.61  size:   160\n",
      "[libx264 @ 0x7f9eae10ab40] frame B:126   Avg QP:18.96  size:    51\n",
      "[libx264 @ 0x7f9eae10ab40] consecutive B-frames: 23.2% 16.0% 38.4% 22.4%\n",
      "[libx264 @ 0x7f9eae10ab40] mb I  I16..4: 60.3% 19.0% 20.6%\n",
      "[libx264 @ 0x7f9eae10ab40] mb P  I16..4:  1.3%  0.7%  0.1%  P16..4:  4.2%  0.4%  0.1%  0.0%  0.0%    skip:93.3%\n",
      "[libx264 @ 0x7f9eae10ab40] mb B  I16..4:  0.2%  0.1%  0.0%  B16..8:  2.9%  0.2%  0.0%  direct: 0.0%  skip:96.6%  L0:52.2% L1:47.2% BI: 0.6%\n",
      "[libx264 @ 0x7f9eae10ab40] 8x8 transform intra:28.8% inter:51.5%\n",
      "[libx264 @ 0x7f9eae10ab40] coded y,uvDC,uvAC intra: 4.1% 10.1% 8.2% inter: 0.1% 0.2% 0.1%\n",
      "[libx264 @ 0x7f9eae10ab40] i16 v,h,dc,p: 96%  1%  3%  0%\n",
      "[libx264 @ 0x7f9eae10ab40] i8 v,h,dc,ddl,ddr,vr,hd,vl,hu: 11%  2% 86%  1%  0%  0%  0%  0%  0%\n",
      "[libx264 @ 0x7f9eae10ab40] i4 v,h,dc,ddl,ddr,vr,hd,vl,hu: 66% 18% 12%  0%  1%  1%  1%  1%  0%\n",
      "[libx264 @ 0x7f9eae10ab40] i8c dc,h,v,p: 42%  4% 54%  0%\n",
      "[libx264 @ 0x7f9eae10ab40] Weighted P-Frames: Y:0.0% UV:0.0%\n",
      "[libx264 @ 0x7f9eae10ab40] ref P L0: 90.8%  0.4%  6.1%  2.7%\n",
      "[libx264 @ 0x7f9eae10ab40] ref B L0: 75.2% 16.4%  8.3%\n",
      "[libx264 @ 0x7f9eae10ab40] ref B L1: 98.6%  1.4%\n",
      "[libx264 @ 0x7f9eae10ab40] kb/s:26.08\n",
      "[aac @ 0x7f9eae10c040] Qavg: 210.217\n",
      "ffmpeg version 6.0 Copyright (c) 2000-2023 the FFmpeg developers\n",
      "  built with Apple clang version 14.0.0 (clang-1400.0.29.202)\n",
      "  configuration: --prefix=/usr/local/Cellar/ffmpeg/6.0 --enable-shared --enable-pthreads --enable-version3 --cc=clang --host-cflags= --host-ldflags= --enable-ffplay --enable-gnutls --enable-gpl --enable-libaom --enable-libaribb24 --enable-libbluray --enable-libdav1d --enable-libmp3lame --enable-libopus --enable-librav1e --enable-librist --enable-librubberband --enable-libsnappy --enable-libsrt --enable-libsvtav1 --enable-libtesseract --enable-libtheora --enable-libvidstab --enable-libvmaf --enable-libvorbis --enable-libvpx --enable-libwebp --enable-libx264 --enable-libx265 --enable-libxml2 --enable-libxvid --enable-lzma --enable-libfontconfig --enable-libfreetype --enable-frei0r --enable-libass --enable-libopencore-amrnb --enable-libopencore-amrwb --enable-libopenjpeg --enable-libspeex --enable-libsoxr --enable-libzmq --enable-libzimg --disable-libjack --disable-indev=jack --enable-videotoolbox\n",
      "  libavutil      58.  2.100 / 58.  2.100\n",
      "  libavcodec     60.  3.100 / 60.  3.100\n",
      "  libavformat    60.  3.100 / 60.  3.100\n",
      "  libavdevice    60.  1.100 / 60.  1.100\n",
      "  libavfilter     9.  3.100 /  9.  3.100\n",
      "  libswscale      7.  1.100 /  7.  1.100\n",
      "  libswresample   4. 10.100 /  4. 10.100\n",
      "  libpostproc    57.  1.100 / 57.  1.100\n",
      "Input #0, png_pipe, from '/var/folders/cj/qtbz9fvd3svc0x28yv2756mh0000gn/T/tmpnj0klv1e.png':\n",
      "  Duration: N/A, bitrate: N/A\n",
      "  Stream #0:0: Video: png, rgba(pc), 1000x200, 25 fps, 25 tbr, 25 tbn\n",
      "Guessed Channel Layout for Input Stream #1.0 : stereo\n",
      "Input #1, wav, from '/var/folders/cj/qtbz9fvd3svc0x28yv2756mh0000gn/T/tmpjkt13x9b.wav':\n",
      "  Duration: 00:00:10.00, bitrate: 1536 kb/s\n",
      "  Stream #1:0: Audio: pcm_s16le ([1][0][0][0] / 0x0001), 48000 Hz, 2 channels, s16, 1536 kb/s\n",
      "Stream mapping:\n",
      "  Stream #0:0 -> #0:0 (png (native) -> h264 (libx264))\n",
      "  Stream #1:0 -> #0:1 (pcm_s16le (native) -> aac (native))\n",
      "Press [q] to stop, [?] for help\n",
      "[libx264 @ 0x7fd381214100] using cpu capabilities: MMX2 SSE2Fast SSSE3 SSE4.2 AVX FMA3 BMI2 AVX2\n",
      "[libx264 @ 0x7fd381214100] profile High, level 3.0, 4:2:0, 8-bit\n",
      "[libx264 @ 0x7fd381214100] 264 - core 164 r3095 baee400 - H.264/MPEG-4 AVC codec - Copyleft 2003-2022 - http://www.videolan.org/x264.html - options: cabac=1 ref=3 deblock=1:0:0 analyse=0x3:0x113 me=hex subme=7 psy=1 psy_rd=1.00:0.00 mixed_ref=1 me_range=16 chroma_me=1 trellis=1 8x8dct=1 cqm=0 deadzone=21,11 fast_pskip=1 chroma_qp_offset=-2 threads=6 lookahead_threads=1 sliced_threads=0 nr=0 decimate=1 interlaced=0 bluray_compat=0 constrained_intra=0 bframes=3 b_pyramid=2 b_adapt=1 b_bias=0 direct=1 weightb=1 open_gop=0 weightp=2 keyint=250 keyint_min=25 scenecut=40 intra_refresh=0 rc_lookahead=40 rc=crf mbtree=1 crf=23.0 qcomp=0.60 qpmin=0 qpmax=69 qpstep=4 ip_ratio=1.40 aq=1:1.00\n",
      "Output #0, mp4, to '/var/folders/cj/qtbz9fvd3svc0x28yv2756mh0000gn/T/tmp1lzsp3yb.mp4':\n",
      "  Metadata:\n",
      "    encoder         : Lavf60.3.100\n",
      "  Stream #0:0: Video: h264 (avc1 / 0x31637661), yuv420p(tv, progressive), 1000x200, q=2-31, 25 fps, 12800 tbn\n",
      "    Metadata:\n",
      "      encoder         : Lavc60.3.100 libx264\n",
      "    Side data:\n",
      "      cpb: bitrate max/min/avg: 0/0/0 buffer size: 0 vbv_delay: N/A\n",
      "  Stream #0:1: Audio: aac (LC) (mp4a / 0x6134706D), 48000 Hz, stereo, fltp, 128 kb/s\n",
      "    Metadata:\n",
      "      encoder         : Lavc60.3.100 aac\n"
     ]
    },
    {
     "name": "stderr",
     "output_type": "stream",
     "text": [
      "frame=  250 fps=0.0 q=-1.0 Lsize=     198kB time=00:00:09.98 bitrate= 162.3kbits/s speed=11.9x     \n",
      "video:33kB audio:156kB subtitle:0kB other streams:0kB global headers:0kB muxing overhead: 4.469527%\n",
      "[libx264 @ 0x7fd381214100] frame I:1     Avg QP:23.08  size:  6123\n",
      "[libx264 @ 0x7fd381214100] frame P:135   Avg QP:22.14  size:   160\n",
      "[libx264 @ 0x7fd381214100] frame B:114   Avg QP:17.61  size:    48\n",
      "[libx264 @ 0x7fd381214100] consecutive B-frames: 26.0% 27.2% 37.2%  9.6%\n",
      "[libx264 @ 0x7fd381214100] mb I  I16..4: 46.3% 32.7% 21.0%\n",
      "[libx264 @ 0x7fd381214100] mb P  I16..4:  1.3%  0.6%  0.1%  P16..4:  4.0%  0.3%  0.1%  0.0%  0.0%    skip:93.7%\n",
      "[libx264 @ 0x7fd381214100] mb B  I16..4:  0.2%  0.1%  0.0%  B16..8:  2.8%  0.2%  0.0%  direct: 0.0%  skip:96.8%  L0:51.9% L1:47.7% BI: 0.3%\n",
      "[libx264 @ 0x7fd381214100] 8x8 transform intra:32.1% inter:39.6%\n",
      "[libx264 @ 0x7fd381214100] coded y,uvDC,uvAC intra: 3.8% 10.5% 8.9% inter: 0.1% 0.2% 0.1%\n",
      "[libx264 @ 0x7fd381214100] i16 v,h,dc,p: 96%  1%  3%  0%\n",
      "[libx264 @ 0x7fd381214100] i8 v,h,dc,ddl,ddr,vr,hd,vl,hu: 19%  3% 76%  1%  0%  0%  0%  0%  0%\n",
      "[libx264 @ 0x7fd381214100] i4 v,h,dc,ddl,ddr,vr,hd,vl,hu: 59% 16% 20%  0%  1%  1%  1%  1%  1%\n",
      "[libx264 @ 0x7fd381214100] i8c dc,h,v,p: 38%  5% 57%  0%\n",
      "[libx264 @ 0x7fd381214100] Weighted P-Frames: Y:0.0% UV:0.0%\n",
      "[libx264 @ 0x7fd381214100] ref P L0: 92.3%  0.3%  5.4%  2.0%\n",
      "[libx264 @ 0x7fd381214100] ref B L0: 79.7% 12.0%  8.3%\n",
      "[libx264 @ 0x7fd381214100] ref B L1: 98.8%  1.2%\n",
      "[libx264 @ 0x7fd381214100] kb/s:26.56\n",
      "[aac @ 0x7fd381215640] Qavg: 210.217\n"
     ]
    }
   ],
   "source": [
    "import gradio as gr\n",
    "import random\n",
    "\n",
    "\n",
    "COLORS = [\n",
    "    [\"#ff0000\", \"#00ff00\"],\n",
    "    [\"#00ff00\", \"#0000ff\"],\n",
    "    [\"#0000ff\", \"#ff0000\"],\n",
    "]    \n",
    "\n",
    "def audio_waveform(audio, image):\n",
    "    return (\n",
    "        audio,\n",
    "        gr.make_waveform(audio),\n",
    "        gr.make_waveform(audio, bg_image=image, bars_color=random.choice(COLORS)),\n",
    "    )\n",
    "\n",
    "\n",
    "gr.Interface(\n",
    "    audio_waveform,\n",
    "    inputs=[gr.Audio(), gr.Image(type=\"filepath\")],\n",
    "    outputs=[\n",
    "        gr.Audio(),\n",
    "        gr.Video(),\n",
    "        gr.Video(),\n",
    "    ],\n",
    ").launch()\n"
   ]
  },
  {
   "cell_type": "code",
   "execution_count": null,
   "id": "49070af0",
   "metadata": {},
   "outputs": [],
   "source": []
  }
 ],
 "metadata": {
  "colab": {
   "provenance": []
  },
  "gpuClass": "standard",
  "kernelspec": {
   "display_name": "Python 3 (ipykernel)",
   "language": "python",
   "name": "python3"
  },
  "language_info": {
   "codemirror_mode": {
    "name": "ipython",
    "version": 3
   },
   "file_extension": ".py",
   "mimetype": "text/x-python",
   "name": "python",
   "nbconvert_exporter": "python",
   "pygments_lexer": "ipython3",
   "version": "3.10.9"
  }
 },
 "nbformat": 4,
 "nbformat_minor": 5
}
